<!-- 取自 iconfont-阿里巴巴矢量图库 -->

<svg t="1702349497181" class="icon" viewBox="0 0 1024 1024" version="1.1" 
xmlns="http://www.w3.org/2000/svg" p-id="3637" width="45" height="45">
<path d="M662.588235 45.176471c0-24.937412-13.492706-45.176471-30.117647-45.176471s-30.117647 20.239059-30.117647 45.176471v90.352941c0 24.937412 13.492706 45.176471 30.117647 45.17647s30.117647-20.239059 30.117647-45.17647V45.176471zM451.764706 45.176471C451.764706 20.239059 438.272 0 421.647059 0s-30.117647 20.239059-30.117647 45.176471v90.352941c0 24.937412 13.492706 45.176471 30.117647 45.17647s30.117647-20.239059 30.117647-45.17647V45.176471zM240.941176 45.176471C240.941176 20.239059 227.448471 0 210.823529 0S180.705882 20.239059 180.705882 45.176471v90.352941c0 24.937412 13.492706 45.176471 30.117647 45.17647s30.117647-20.239059 30.117647-45.17647V45.176471z" 
fill="#0958d9" p-id="3638"></path><path d="M843.294118 475.497412a294.671059 294.671059 0 0 0-184.922353 21.443764 46.561882 46.561882 0 0 0-42.526118-27.708235H226.544941a46.501647 46.501647 0 1 0 0 93.123765h341.172706A311.296 311.296 0 0 0 506.578824 655.36H226.544941a46.501647 46.501647 0 1 0 0 93.063529h256.421647A316.777412 316.777412 0 0 0 506.578824 903.529412H43.610353A43.610353 43.610353 0 0 1 0 859.919059V103.845647C0 79.751529 19.516235 60.235294 43.610353 60.235294h72.704v43.610353a87.220706 87.220706 0 1 0 174.501647 0V60.235294h43.610353v43.610353a87.220706 87.220706 0 1 0 174.441412 0V60.235294h43.670588v43.610353a87.220706 87.220706 0 1 0 174.441412 0V60.235294h72.704c24.094118 0 43.610353 19.516235 43.610353 43.610353v371.651765zM226.544941 283.105882a46.501647 46.501647 0 1 0 0 93.06353h389.300706a46.501647 46.501647 0 0 0 0-93.06353H226.544941z" 
fill="#003eb3" p-id="3639">
</path>
<path d="M783.058824 542.358588c-131.674353 0-240.700235 109.025882-240.700236 240.700236s109.025882 240.700235 240.700236 240.700235A241.423059 241.423059 0 0 0 1023.759059 783.058824 240.519529 240.519529 0 0 0 783.058824 542.358588z m103.363764 249.193412a20.178824 20.178824 0 0 1-19.817412 22.648471h-75.053176c-4.216471 1.445647-9.938824 0-16.986353 0h-1.445647c-12.709647 0-22.648471 4.216471-22.648471-8.432942v-136.011294c0-12.709647 11.324235-22.648471 22.648471-22.64847 12.769882 0 22.708706 11.324235 22.708706 22.64847v97.701647h67.945412c12.769882 0 21.263059 9.938824 21.263058 21.263059 1.385412 1.445647 1.385412 2.831059 1.385412 2.831059z" 
fill="#0958d9" p-id="3640">
</path></svg>

  